<?xml version="1.0" encoding="UTF-8" standalone="no"?>
<!-- Created with Inkscape (http://www.inkscape.org/) -->

<svg
   xmlns:dc="http://purl.org/dc/elements/1.1/"
   xmlns:cc="http://creativecommons.org/ns#"
   xmlns:rdf="http://www.w3.org/1999/02/22-rdf-syntax-ns#"
   xmlns:svg="http://www.w3.org/2000/svg"
   xmlns="http://www.w3.org/2000/svg"
   xmlns:sodipodi="http://sodipodi.sourceforge.net/DTD/sodipodi-0.dtd"
   xmlns:inkscape="http://www.inkscape.org/namespaces/inkscape"
   width="4.2106314mm"
   height="3.1242101mm"
   viewBox="0 0 4.2106314 3.1242101"
   version="1.1"
   id="svg8"
   inkscape:version="0.92.3 (2405546, 2018-03-11)"
   sodipodi:docname="slide_icon.svg"
   inkscape:export-filename="E:\Documents\Zim\Projects\VideoAdministration\Calendar\published\MrScislowski.github.io\video_icon.png"
   inkscape:export-xdpi="194.25682"
   inkscape:export-ydpi="194.25682">
  <defs
     id="defs2" />
  <sodipodi:namedview
     id="base"
     pagecolor="#ffffff"
     bordercolor="#666666"
     borderopacity="1.0"
     inkscape:pageopacity="0.0"
     inkscape:pageshadow="2"
     inkscape:zoom="22.4"
     inkscape:cx="13.258865"
     inkscape:cy="1.7945013"
     inkscape:document-units="mm"
     inkscape:current-layer="layer1"
     showgrid="false"
     fit-margin-top="0"
     fit-margin-left="0"
     fit-margin-right="0"
     fit-margin-bottom="0"
     inkscape:window-width="1920"
     inkscape:window-height="1017"
     inkscape:window-x="1272"
     inkscape:window-y="-8"
     inkscape:window-maximized="1">
    <inkscape:grid
       type="xygrid"
       id="grid826"
       originx="-3.6545247"
       originy="-290.24975" />
  </sodipodi:namedview>
  <metadata
     id="metadata5">
    <rdf:RDF>
      <cc:Work
         rdf:about="">
        <dc:format>image/svg+xml</dc:format>
        <dc:type
           rdf:resource="http://purl.org/dc/dcmitype/StillImage" />
        <dc:title></dc:title>
      </cc:Work>
    </rdf:RDF>
  </metadata>
  <g
     inkscape:label="Layer 1"
     inkscape:groupmode="layer"
     id="layer1"
     transform="translate(-3.6545246,-3.6260307)">
    <path
       style="fill:#000000;stroke-width:0.00741309"
       d="M 3.801115,6.7383845 C 3.759052,6.7234905 3.6990026,6.6681577 3.6745004,6.6217152 L 3.6545246,6.5838518 V 5.1864856 3.789119 L 3.6714276,3.755167 C 3.6928336,3.71217 3.7386376,3.664273 3.7789491,3.6427307 l 0.03125,-0.0167 h 1.9496415 c 1.8771309,0 1.950569,5.059e-4 1.9745818,0.013601 0.040341,0.022001 0.089818,0.071973 0.1110118,0.1121232 l 0.019722,0.037363 v 1.3973674 1.3973665 l -0.019976,0.037863 c -0.025476,0.04829 -0.082175,0.099307 -0.128915,0.1159955 -0.034401,0.012282 -0.1438436,0.012975 -1.9601311,0.012387 C 4.068335,6.7495587 3.8285974,6.7481145 3.801115,6.7383845 Z M 7.3573603,6.6728087 V 6.617211 H 5.7709601 4.18456 v 0.055598 0.055598 h 1.5864001 1.5864002 z m 0.1482618,-0.083572 c 0.08383,-0.034654 0.1465823,-0.09673 0.1789749,-0.1770444 l 0.017472,-0.04332 0.00197,-1.1560032 C 7.7053217,4.4591398 7.7033995,4.0427985 7.6985291,4.0164406 7.6803634,3.9181747 7.6206161,3.8398208 7.5295178,3.7947966 l -0.056484,-0.027917 -1.6905692,-0.002 c -1.1117305,-0.00132 -1.7025715,5.5e-4 -1.7256237,0.00544 -0.091267,0.01939 -0.1674698,0.080393 -0.2113624,0.1692029 l -0.027867,0.056385 v 1.1901851 1.1901852 l 0.023611,0.049841 c 0.028239,0.059611 0.07759,0.1145527 0.1271016,0.1415004 0.080805,0.04398 -0.035936,0.041403 1.8063424,0.03987 l 1.6901833,-0.0014 z M 3.8015266,6.228633 c 0.00222,-0.00578 0.00341,-0.4686353 0.00265,-1.0285655 l -0.00139,-1.018055 -0.064864,-0.00215 -0.064865,-0.00215 v 1.0307074 1.0307074 h 0.062218 c 0.046864,0 0.063214,-0.00259 0.066251,-0.01051 z M 7.8540371,5.2050182 V 4.178306 h -0.063062 -0.063062 l 1.527e-4,1.0267122 1.526e-4,1.0267122 h 0.062909 0.062909 z M 7.3573603,3.6853359 V 3.6297375 H 5.7709601 4.18456 v 0.055598 0.055598 h 1.5864001 1.5864002 z"
       id="path25"
       inkscape:connector-curvature="0" />
  </g>
</svg>
